Coordinates
version=1
nRows=54
nColumns=12
inDegrees=yes

Units are S.I. units (second, meters, Newtons, ...)
Angles are in degrees

endheader
time	SC_y	SC_z	SC_x	AC_y	AC_z	AC_x	GH_y	GH_z	GH_yy	EL_x	PS_y
       0.0              -16.16          10.94          46.46          52.94         -12.66           18.7         -150.4          89.16         -135.7           54.4          115.6
   0.03158              -16.17          10.94          46.45          52.94         -12.66           18.7         -150.4          89.15         -135.7           54.4          115.6
   0.06316              -16.17          10.94          46.44          52.94         -12.66           18.7         -150.4          89.14         -135.7           54.4          115.6
   0.09475              -16.18          10.94          46.44          52.94         -12.66          18.69         -150.3          89.12         -135.7          54.41          115.5
    0.1263              -16.19          10.94          46.43          52.94         -12.65          18.69         -150.3          89.11         -135.7          54.41          115.5
    0.1579              -16.19          10.94          46.43          52.94         -12.65          18.69         -150.3           89.1         -135.7          54.41          115.5
    0.1895               -16.2          10.93          46.42          52.94         -12.65          18.68         -150.2          89.08         -135.7          54.42          115.5
    0.2211              -16.21          10.93          46.41          52.95         -12.64          18.68         -150.2          89.07         -135.7          54.42          115.5
    0.2527              -16.22          10.93           46.4          52.95         -12.64          18.68         -150.1          89.05         -135.7          54.43          115.5
    0.2842              -16.22          10.93          46.39          52.95         -12.63          18.67         -150.1          89.03         -135.7          54.43          115.5
    0.3158              -16.23          10.93          46.38          52.95         -12.63          18.67         -150.1          89.01         -135.7          54.44          115.4
    0.3474              -16.24          10.93          46.37          52.95         -12.63          18.66         -150.0          88.99         -135.7          54.44          115.4
     0.379              -16.26          10.92          46.36          52.96         -12.62          18.66         -150.0          88.97         -135.7          54.45          115.4
    0.4106              -16.27          10.92          46.35          52.96         -12.61          18.65         -149.9          88.94         -135.7          54.46          115.4
    0.4421              -16.28          10.92          46.34          52.96         -12.61          18.65         -149.8          88.92         -135.7          54.47          115.4
    0.4737               -16.3          10.92          46.32          52.97          -12.6          18.64         -149.8          88.89         -135.7          54.47          115.3
    0.5053              -16.31          10.91          46.31          52.97         -12.59          18.63         -149.7          88.86         -135.7          54.48          115.3
    0.5369              -16.33          10.91          46.29          52.97         -12.59          18.62         -149.6          88.82         -135.7          54.49          115.3
    0.5685              -16.35          10.91          46.27          52.98         -12.58          18.61         -149.5          88.79         -135.7          54.51          115.2
    0.6001              -16.37           10.9          46.25          52.98         -12.57          18.61         -149.4          88.75         -135.7          54.52          115.2
    0.6316              -16.39           10.9          46.23          52.99         -12.56          18.59         -149.3           88.7         -135.7          54.53          115.2
    0.6632              -16.41          10.89          46.21          52.99         -12.55          18.58         -149.2          88.65         -135.7          54.54          115.1
    0.6948              -16.44          10.89          46.18           53.0         -12.53          18.57         -149.1           88.6         -135.7          54.56          115.1
    0.7264              -16.47          10.88          46.15          53.01         -12.52          18.56         -148.9          88.54         -135.7          54.58          115.0
     0.758               -16.5          10.87          46.12          53.01          -12.5          18.54         -148.7          88.47         -135.7           54.6          115.0
    0.7896              -16.54          10.87          46.08          53.02         -12.49          18.52         -148.6           88.4         -135.7          54.62          114.9
    0.8211              -16.58          10.86          46.04          53.03         -12.47           18.5         -148.4          88.31         -135.7          54.65          114.8
    0.8527              -16.63          10.85           46.0          53.04         -12.45          18.48         -148.1          88.22         -135.7          54.67          114.7
    0.8843              -16.68          10.84          45.95          53.05         -12.42          18.46         -147.9          88.11         -135.7           54.7          114.6
    0.9159              -16.74          10.83          45.89          53.07         -12.39          18.43         -147.6          87.99         -135.7          54.74          114.5
    0.9475              -16.81          10.81          45.82          53.08         -12.36           18.4         -147.3          87.86         -135.7          54.78          114.4
     0.979              -16.89           10.8          45.74           53.1         -12.33          18.36         -146.9           87.7         -135.7          54.83          114.3
     1.011              -16.98          10.78          45.65          53.12         -12.28          18.32         -146.4          87.52         -135.7          54.88          114.1
     1.042              -17.08          10.76          45.55          53.15         -12.23          18.27         -145.9           87.3         -135.7          54.94          113.9
     1.074               -17.2          10.73          45.43          53.17         -12.18          18.21         -145.3          87.06         -135.7          55.02          113.7
     1.105              -17.35          10.71          45.29          53.21         -12.11          18.15         -144.6          86.76         -135.7           55.1          113.4
     1.137              -17.52          10.67          45.12          53.25         -12.03          18.06         -143.8          86.42         -135.7          55.21          113.1
     1.169              -17.73          10.63          44.91          53.29         -11.93          17.97         -142.8           86.0         -135.7          55.33          112.7
       1.2              -17.97          10.58          44.67          53.35         -11.82          17.85         -141.6           85.5         -135.6          55.48          112.3
     1.232              -18.28          10.52          44.37          53.42         -11.67          17.71         -140.1          84.88         -135.6          55.66          111.7
     1.263              -18.66          10.44           44.0           53.5          -11.5          17.53         -138.2          84.12         -135.6          55.88          111.1
     1.295              -19.12          10.35          43.53          53.61         -11.28          17.31         -135.9          83.18         -135.6          56.16          110.2
     1.326              -19.71          10.23          42.95          53.74          -11.0          17.04         -133.1          81.99         -135.6          56.52          109.1
     1.358              -20.46          10.08          42.21          53.92         -10.65          16.68         -129.4          80.47         -135.5          56.96          107.8
      1.39              -21.42          9.892          41.27          54.13          -10.2          16.23         -124.7          78.53         -135.5          57.54          106.0
     1.421              -22.66          9.646          40.05          54.42         -9.625          15.66         -118.7          76.04         -135.4          58.27          103.8
     1.453              -24.23          9.332           38.5          54.77         -8.889          14.92         -111.0          72.86         -135.4          59.21          101.0
     1.484              -26.21          8.937          36.55          55.22         -7.963          13.99         -101.3          68.86         -135.3           60.4          97.37
     1.516              -28.62          8.456          34.17          55.77         -6.834          12.86          -89.5          63.99         -135.1          61.84          93.01
     1.548              -31.42          7.898          31.41          56.41         -5.526          11.55         -75.84          58.34         -135.0          63.51          87.94
     1.579              -34.45          7.294          28.42           57.1          -4.11          10.13         -61.04          52.23         -134.9          65.31          82.46
     1.611              -37.48           6.69          25.44          57.79         -2.693          8.709         -46.24          46.12         -134.7          67.12          76.98
     1.642              -40.27          6.133          22.68          58.43         -1.385          7.398         -32.58          40.47         -134.6          68.79          71.91
     1.674              -42.68          5.651           20.3          58.98        -0.2567          6.267         -20.78           35.6         -134.5          70.23          67.55
